<svg xmlns="http://www.w3.org/2000/svg" viewBox="0 0 420 120" role="img" aria-labelledby="fortamuni-logo-title fortamuni-logo-desc">
  <title id="fortamuni-logo-title">FortaMuni logo</title>
  <desc id="fortamuni-logo-desc">Escudo azul con ruta central, check naranja y hoja verde junto al nombre FortaMuni.</desc>
  <defs>
    <linearGradient id="fortamuni-shield-gradient" x1="16" y1="12" x2="84" y2="108" gradientUnits="userSpaceOnUse">
      <stop offset="0" stop-color="#3b82c4" />
      <stop offset="1" stop-color="#15558c" />
    </linearGradient>
    <linearGradient id="fortamuni-road-gradient" x1="48" y1="24" x2="48" y2="96" gradientUnits="userSpaceOnUse">
      <stop offset="0" stop-color="#f8fbff" stop-opacity="0.95" />
      <stop offset="1" stop-color="#d9ecfb" stop-opacity="0.85" />
    </linearGradient>
  </defs>
  <g>
    <path d="M48 8c22 0 40 6 40 6v32c0 24-16 46-40 58C24 92 8 70 8 46V14s18-6 40-6Z" fill="url(#fortamuni-shield-gradient)" />
    <path d="M48 21c11 0 20 2.7 20 2.7v21.8c0 15-7.8 30-20 40.1-12.2-10.1-20-25.1-20-40.1V23.7S37 21 48 21Z" fill="#0f3f67" opacity="0.28" />
    <path d="M47 24c-7.7 8.7-12.8 20.8-12.8 34.1 0 8.8 2.4 17.1 6.7 24.2 2.4 1.9 4.4 3.2 7.1 5.1 2.8-1.9 4.8-3.2 7.2-5.2 4.2-7.1 6.6-15.3 6.6-24.1 0-13.2-5.1-25.3-12.8-34.1Z" fill="url(#fortamuni-road-gradient)" />
    <path d="M48 28c4.1 6 6.7 14.2 6.7 23.4 0 10-3.1 19-6.7 26-3.6-7-6.8-16-6.8-26 0-9.2 2.7-17.4 6.8-23.4Z" fill="#f7fafc" />
    <path d="M31 61.5 42.5 72 66.5 47.5" fill="none" stroke="#f6a63a" stroke-linecap="round" stroke-linejoin="round" stroke-width="8" />
    <path d="M61 73.5c9.2-1.4 15.4-7.7 18.3-16.7-1.6 7.8-4.7 15.5-10.2 22.4-4.3 5.4-10 9.8-16.5 12.9 4-4.2 6.4-11.4 8.4-18.6Z" fill="#49a86c" />
    <path d="M57.5 92.1c1.9-2.9 3.1-6.6 4.4-10.5 5.3-.4 10.4-2 14.7-5-2.2 5.7-6 11-11.2 14.8-2.4 1.8-5 3.2-7.9 4.4Z" fill="#2f8f57" />
  </g>
  <g fill="none" fill-rule="evenodd" transform="translate(118 26)">
    <path d="M0 58V0h42.2v10H12v14.7h24.7v9.9H12V58H0Z" fill="#15558c" />
    <path d="M74.3 17.4c10.5 0 18.5 7.7 18.5 20.8 0 1.1-.1 2.3-.2 3.5H59.4c1.1 5.6 5.8 8.8 11.8 8.8 4.6 0 8.1-1.6 11.3-4.7l6.7 6.4C84.7 56.7 78.8 59 70.7 59c-13.5 0-23.5-9.1-23.5-21.1 0-12 10-20.5 23.1-20.5Zm-14.8 16.9h21.5c-.7-5.7-4-9.2-10.4-9.2-5.4 0-9.3 3.2-11.1 9.2Z" fill="#15558c" />
    <path d="M101.3 58V18.5h11.5v5.6c2.5-4.1 6.7-6.7 13.1-6.7 9.3 0 14.7 6.1 14.7 15.9V58h-11.5V37.1c0-5.6-2.6-8.5-7.2-8.5-4.6 0-7.6 2.9-7.6 8.5V58h-11.5Z" fill="#15558c" />
    <path d="M177 59c-12 0-21.1-8.8-21.1-20.8 0-12 9.2-20.8 21.2-20.8 7.7 0 12.4 2.7 16.2 6.9l-7.1 7.6c-2.6-2.7-5.2-4.5-9.1-4.5-5.7 0-9.8 5-9.8 10.8S171.3 49 177.5 49c3.8 0 6.4-1.6 9.2-4.3l6.8 6.8c-4 4.5-8.7 7.5-16.5 7.5Z" fill="#15558c" />
    <path d="M219.8 58.9c-12.9 0-22.4-9-22.4-20.7 0-11.6 9.6-20.8 22.6-20.8 13 0 22.5 9 22.5 20.7 0 11.7-9.7 20.8-22.7 20.8Zm.2-10c6.1 0 10.8-4.9 10.8-10.7s-4.4-10.9-11-10.9c-6.5 0-10.8 5-10.8 10.8 0 5.8 4.4 10.8 11 10.8Z" fill="#15558c" />
    <path d="M268.5 58.9c-12.9 0-22.4-9-22.4-20.7 0-11.6 9.6-20.8 22.6-20.8 13 0 22.5 9 22.5 20.7 0 11.7-9.7 20.8-22.7 20.8Zm.2-10c6.1 0 10.8-4.9 10.8-10.7s-4.4-10.9-11-10.9c-6.5 0-10.8 5-10.8 10.8 0 5.8 4.4 10.8 11 10.8Z" fill="#15558c" />
    <path d="M299.1 58V3.9h11.5v21.6c2.7-3.7 6.6-7.2 13.6-7.2 9.6 0 18.7 7.5 18.7 20.3 0 12.8-9 20.3-18.7 20.3-7.2 0-11-3.3-13.6-7.1V58h-11.5Zm21.8-8.8c6.1 0 10.4-4.5 10.4-10.6 0-6.1-4.3-10.6-10.4-10.6-6.1 0-10.6 4.5-10.6 10.6 0 6.1 4.5 10.6 10.6 10.6Z" fill="#15558c" />
    <path d="M348.9 13.9V3.7H361v10.2h-12.1Zm.3 44.1V18.5h11.5V58h-11.5Z" fill="#49a86c" />
    <path d="M371 58V18.5h11.5v5.6c2.5-4.1 6.7-6.7 13.1-6.7 9.3 0 14.7 6.1 14.7 15.9V58h-11.5V37.1c0-5.6-2.6-8.5-7.2-8.5-4.6 0-7.6 2.9-7.6 8.5V58H371Z" fill="#49a86c" />
    <path d="M0 74.8h18.2v5H5.7v7.2H16.9v4.8H5.7V102H0V74.8Z" fill="#64748b" />
    <path d="M38.2 102.5c-7 0-12.1-4.9-12.1-11.3 0-6.3 5.2-11.4 12.2-11.4 7 0 12.2 4.9 12.2 11.3 0 6.4-5.2 11.4-12.3 11.4Zm.1-5.3c3.3 0 5.8-2.7 5.8-5.8 0-3.2-2.4-5.9-5.9-5.9-3.5 0-5.8 2.7-5.8 5.8 0 3.1 2.4 5.9 5.9 5.9Z" fill="#64748b" />
    <path d="M60.1 102V80.4h5.8v4.9c1.4-3.3 3.9-5.4 7.8-5.2v6.1h-.3c-4.6 0-7.5 3-7.5 9V102h-5.8Z" fill="#64748b" />
  </g>
</svg>
