<svg xmlns="http://www.w3.org/2000/svg" viewBox="0 0 420 120" role="img" aria-labelledby="fortamuni-logo-title fortamuni-logo-desc">
  <title id="fortamuni-logo-title">FortaMuni logo</title>
  <desc id="fortamuni-logo-desc">Escudo azul con ruta central, check naranja y hoja verde junto al nombre FortaMuni.</desc>
  <defs>
    <linearGradient id="fortamuni-shield-gradient" x1="16" y1="12" x2="84" y2="108" gradientUnits="userSpaceOnUse">
      <stop offset="0" stop-color="#3b82c4" />
      <stop offset="1" stop-color="#15558c" />
    </linearGradient>
    <linearGradient id="fortamuni-road-gradient" x1="48" y1="24" x2="48" y2="96" gradientUnits="userSpaceOnUse">
      <stop offset="0" stop-color="#f8fbff" stop-opacity="0.95" />
      <stop offset="1" stop-color="#d9ecfb" stop-opacity="0.85" />
    </linearGradient>
  </defs>
  <g>
    <path d="M48 8c22 0 40 6 40 6v32c0 24-16 46-40 58C24 92 8 70 8 46V14s18-6 40-6Z" fill="url(#fortamuni-shield-gradient)" />
    <path d="M48 21c11 0 20 2.7 20 2.7v21.8c0 15-7.8 30-20 40.1-12.2-10.1-20-25.1-20-40.1V23.7S37 21 48 21Z" fill="#0f3f67" opacity="0.28" />
    <path d="M47 24c-7.7 8.7-12.8 20.8-12.8 34.1 0 8.8 2.4 17.1 6.7 24.2 2.4 1.9 4.4 3.2 7.1 5.1 2.8-1.9 4.8-3.2 7.2-5.2 4.2-7.1 6.6-15.3 6.6-24.1 0-13.2-5.1-25.3-12.8-34.1Z" fill="url(#fortamuni-road-gradient)" />
    <path d="M48 28c4.1 6 6.7 14.2 6.7 23.4 0 10-3.1 19-6.7 26-3.6-7-6.8-16-6.8-26 0-9.2 2.7-17.4 6.8-23.4Z" fill="#f7fafc" />
    <path d="M31 61.5 42.5 72 66.5 47.5" fill="none" stroke="#f6a63a" stroke-linecap="round" stroke-linejoin="round" stroke-width="8" />
    <path d="M61 73.5c9.2-1.4 15.4-7.7 18.3-16.7-1.6 7.8-4.7 15.5-10.2 22.4-4.3 5.4-10 9.8-16.5 12.9 4-4.2 6.4-11.4 8.4-18.6Z" fill="#49a86c" />
    <path d="M57.5 92.1c1.9-2.9 3.1-6.6 4.4-10.5 5.3-.4 10.4-2 14.7-5-2.2 5.7-6 11-11.2 14.8-2.4 1.8-5 3.2-7.9 4.4Z" fill="#2f8f57" />
  </g>
  <g transform="translate(118 26)">
    <text x="0" y="38" font-family="'Montserrat', 'Poppins', 'Segoe UI', Arial, sans-serif" font-size="52" font-weight="800" letter-spacing="0.4">
      <tspan fill="#15558c">Forta</tspan><tspan fill="#2f8f57">Muni</tspan>
    </text>
  </g>
</svg>
